<?xml version="1.0" encoding="UTF-8"?>
<svg id="Layer_1" data-name="Layer 1" xmlns="http://www.w3.org/2000/svg" viewBox="0 0 500 500">
  <defs>
    <style>
      .cls-1 {
        fill: #09090b;
      }

      .cls-2 {
        fill: #f472b6;
      }

      .cls-3 {
        fill: #fafafa;
      }
    </style>
  </defs>
  <circle class="cls-3" cx="250" cy="250" r="250"/>
  <g>
    <path class="cls-1" d="M169.43,189.3c1.66-6.53,4.07-13.24,2.74-19.85-1.84-9.18-11.06-15.77-20.41-16.21s-18.4,4.41-24.72,11.31c-6.32,6.9-10.23,15.68-13.12,24.58-4.78,14.72-7.05,30.71-3.11,45.68,3.94,14.96,14.96,28.64,29.88,32.75s33.02-3.58,37.92-18.25c7.21-21.55-14.62-38.56-9.18-60Z"/>
    <path class="cls-1" d="M104.36,340.87c-3.95-5.75-7.6-11.91-9-18.75s-.22-14.52,4.52-19.65c7.58-8.19,21.07-7.07,31.18-2.33,10.11,4.74,18.67,12.86,29.42,15.85,27.01,7.53,33.43-11.74,44.88-14.61,10.02-2.51,19.39,8.96,40.88-5.95,13.16-9.13,18.01-26.31,27.92-38.89,7.43-9.43,14.72-18.26,24.93-24.57,12.6-7.79,29.08-12.69,43.89-12.66,22.27.04,43.09,15.01,52.79,35.05,9.7,20.04,9.02,44.18.92,64.92-8.1,20.74-23.09,38.27-40.53,52.12-29.08,23.08-64.18,38.64-101.28,40.04-5.45,1.14-31.77.17-40.58-1.31-10.76-1.81-21.33-4.7-31.54-8.56-20.11-7.6-38.81-19-54.67-33.51-8.89-8.13-16.89-17.24-23.71-27.17Z"/>
    <path class="cls-1" d="M208.42,214.45c-4.1-14.08-2.06-29.36,2.77-43.21,3.37-9.68,8.1-18.94,14.52-26.94,9.03-11.24,21.38-19.79,35.08-24.3,5.53-1.82,11.71-2.95,17.06-.67,5.69,2.43,9.33,8.49,9.85,14.65.52,6.16-1.74,12.32-5.23,17.43-3.36,4.92-7.84,9.01-11.01,14.06-5.51,8.78-6.5,20.24-2.57,29.84,2.4,5.87,6.56,11.27,6.78,17.61.34,9.57-5.22,19.22-12.93,24.91-10.64,7.85-22.4,9.52-34.4,2.71-9.75-5.54-16.82-15.4-19.93-26.09Z"/>
    <path class="cls-1" d="M177.28,278.46c-1.91-2.18-3.74-4.74-3.74-7.63,0-2.6,1.51-5.02,3.51-6.68s4.44-2.67,6.88-3.59c7.68-2.89,15.64-5.05,23.73-6.43,2.93-.5,5.93-.9,8.85-.37s5.79,2.13,7.17,4.76c1.24,2.36,2.17,7.36.27,7.78-18.44,4.01-19.92,27.28-23.87,27.45-3.69.16-8.71-3.63-11.62-5.55-4.13-2.73-7.9-6.01-11.17-9.73Z"/>
    <path class="cls-3" d="M262.2,299.09c-7.68,8.47-18.98,15.05-30.58,16.08-4.14.34-8.31-.21-11.82-.97-3.52-.76-6.42-1.47-8.09-1.32-2.09.16-3.72,1.27-5.65,2.66-2.34,1.73-4.96,4.06-8,6.23-8.94,6.82-20.02,8.72-30.79,6.48,7.14,14.29,20.22,25.71,35.67,29.97-2.54-4.84-5.08-10.73-2.41-15.5,2.12-3.78,6.71-5.26,10.88-6.42,11.48-3.2,22.96-6.4,34.44-9.61,3.9-1.09,7.92-2.19,11.94-1.73,9.39,1.06,12.72,5.29,26.19,10-9-15.17-12.87-33.19-11.49-50.77-3.03,5.21-6.3,10.46-10.29,14.9Z"/>
    <path class="cls-1" d="M375.56,221.11c-9.64-5.92-21.06-9.47-32.51-9.48-18.35.21-36.43,5.93-51.53,16.36-9.07,6.47-15.74,14.6-22.32,23.04-2.24,2.82-4.34,5.9-6.17,8.95-6.13,9.95-9.84,19.84-18.01,27.58-5.15,4.49-12.25,8.35-18.32,8.88-4.06.48-11.04-.36-15.75-1.05-3.05-.45-5.65-2.42-6.91-5.23h0c-.58-1.3-1.3-2.73-2.64-3.21-.68-.24-1.42-.2-2.13-.07-4.48.85-4.58,3.44-3.49,6.37.98,2.64.17,5.61-2.05,7.36-4.56,3.6-8.78,7.8-14.03,9.63-6.45,2.36-13.85,1.34-20.34-.92-7.5-2.82-13.22-7.5-21.01-11.85-10.04-5.73-22.25-8.88-33.6-4.7-12.71,4.67-17.52,19.12-14.32,31.41,1.75,7.29,5.61,13.66,9.73,19.57,26.31,37.65,67.8,64.06,113.04,72.01,12.11,1.73,24.21,2.2,36.42,2.16,1.84-.05,3.8-.13,5.68-.4,0,0,0,0,0,0,41.78-1.27,81.66-19.87,112.92-47,15.92-14.02,29.32-31.37,36.57-51.53,12.92-35.07,4.31-77.66-29.24-97.88ZM254.63,405.32c-3.5.53-7.02.57-10.6.59-8.78,0-17.75-.27-26.48-1.17-43.21-6.21-84.39-30.45-109.01-66.76-6.38-9.02-12.15-21.54-5.44-30.91,6.05-7.5,17.67-5.43,25.51-1.75,10.21,5.03,19.94,14.13,31.93,16.92,11.66,3.26,23.97,1.66,33.72-5.78,3.04-2.17,5.66-4.5,8-6.23,1.93-1.39,3.56-2.5,5.65-2.66,1.67-.15,4.57.56,8.09,1.32,3.51.76,7.69,1.31,11.82.97,11.6-1.02,22.9-7.61,30.58-16.08,6.98-7.77,11.76-18.01,16.92-26.23,1.64-2.64,3.37-5.08,5.32-7.47,5.8-7.25,12.19-14.71,19.57-19.86,12.42-8.43,27.8-13.09,42.78-13.23,20.55.18,39.36,14.96,47.12,33.63,28.4,75.34-68.3,142.45-135.5,144.69Z"/>
    <path class="cls-2" d="M320.55,423.15c-2.03-1.85-1.26-.45-3.41-4.08-2.52-4.24-7.62-6.79-11.06-10.23-3.83-3.82-7.49-9.16-6.59-14.88.78-4.95,4.92-8.22,9.57-9.2,5.66-1.19,3.03-7.35-2.46-7.5-.27,0-1.68.19-1.94.19-11.49-.2-20.75-.53-25.46,11.37-1.25,3.16-2.12,6.6-2.52,10.1-3.24-5.1-6.93-9.68-13.22-9.68-4.44,0-8.75,2.93-9.79,7.35-1.3,5.54,2.67,10.03,5.24,14.47,2.85,4.92,5.3,9.02,7.91,14.08,2.41,4.68,5.35,8.83-1.16,17.15-1.8,2.14-.74,6.06,2.02,7.64-2.16.03-3.6-1.82-5.77-1.61-5.87.57-10.5-.35-16.29.73-4.64.86-13.16,4.79-16.97,7.91-3.53,2.9-3.12,8.49-2.79,12.6.39,4.88,1.81,8.97,5.02,12.7,1.41,1.64,3.14,1.92,4.66,1.4,7.38,6.36,23.9,8.83,32.05,7.3,14.65-2.75,20.48-2.87,33.98-9.22,7.46-3.51,21.48-11.89,24.16-19.46,1.37-3.88,2.78-5.43,3.8-9.44.16-.62-2.75-5.45-2.64-6.08.31-.49.6-1.01.85-1.56,1.8-4.1-3.74-18.94-7.15-22.05ZM302.55,454.86c.92-.04,1.84-.11,2.74-.25,2.97-.47,5.86-1.67,7.8-3.81-.14.3-.29.59-.46.88-1.69,2.84-6.05,3.34-10.08,3.18ZM317.26,443.22c-.71.87-1.42,1.64-1.62,1.9.54-1.93,1.13-3.89,1.66-5.85.05,1.32.06,2.65-.04,3.96Z"/>
    <g>
      <path class="cls-1" d="M312.62,385.95c-4.17.62-7.26,5.37-7.43,9.55-.17,4.82,2.16,9.21,5.24,13.04,3.24,4.03,8.06,7.47,11.81,11.49,6.92,7.56,12.26,17.15,12.12,27.74-.07,12.79-8.32,23.94-18.11,31.32-21.48,16.96-68.98,27.75-88.86,3.83-4.24-5.34-6.45-12.52-4.87-19.32,2.78-10.65,14.56-16.26,24.35-18.3,7.69-1.5,15.82-1.63,23.39.57,9.72,2.85,18.38,8.62,28.67,8.32.65-.04,1.76-.2,2.41-.34,6.43-1.45,11.8-6.85,12.99-13.37,1.54-6.78-.61-13.55-3.88-19.59-1.27-2.34-2.72-4.64-4.23-6.84-.55-.75-1.01-1.58-1.71-2.22-1.3-1.24-1.34-3.3-.1-4.59,1.24-1.3,3.3-1.34,4.59-.1.71.66.89,1.63,1.48,2.36,1.86,2.82,3.6,5.7,5.12,8.74,5.72,10.63,6.87,25.12-2.49,34.14-3.71,3.61-8.74,5.95-13.96,6.16-10.65.41-20.24-5.43-30.1-8.06-10.02-2.44-21.33-.59-30.22,4.69-3.18,2-5.86,4.35-7.54,7.35-2.39,4.83-.3,10.75,3.07,14.64,17.17,18.36,58.54,8.37,76.33-5.39,17.48-12.91,20.3-29.86,5.92-46.62-3.75-4.23-8.05-7.53-11.64-12.39-6.71-8.54-9.12-21.76.62-29.24,2.19-1.63,8.39-4.62,9.16-.26.12,1.33-.83,2.51-2.13,2.7h0Z"/>
      <path class="cls-1" d="M261.43,444.48c9.13-6.83,3.89-17.67-2.38-24.77-5-5.68-10.77-11.4-10.8-19.71.11-12.02,13.65-18.05,23.54-12.41,10.64,5.54,3.05,18.54,13.95,28.14,0,0-2.26,1.8-2.26,1.8-3.05-5.49-5.91-11.03-7.31-17.3-.67-3.38-.92-6.4-.78-9.91.91-7.58,6.07-14.1,13.13-16.95,5.16-2.15,11.23-2.17,16.45-.1,4.62,1.72,9,4.14,12.25,8.05,1.57,1.87-.18,4.78-2.54,4.31-5.72-.77-10.82-2.24-16.34-3.4-6.49-1.27-14.27,2.73-16.57,9.25-2.42,8.37-.09,17.01,4.25,24.63.39.71.14,1.6-.57,1.99-.56.31-1.24.21-1.69-.19-5.24-4.52-9.69-10.93-12.06-17.54-.83-2.05-1.67-4.02-2.32-4.59-4.56-3.74-12.52-2.23-12.91,4.35-.22,4.85,5.2,10.72,8.52,14.8,2.99,3.89,5.58,8.15,6.99,12.99,2.5,7.91-.45,16.86-7.98,20.86-2.83,1.49-5.22-2.48-2.57-4.29h0Z"/>
    </g>
  </g>
</svg>