<?xml version="1.0" encoding="UTF-8"?>
<svg id="Layer_2" data-name="Layer 2" xmlns="http://www.w3.org/2000/svg" viewBox="0 0 989.5 449.07">
  <defs>
    <style>
      .cls-1 {
        fill: #f472b6;
      }

      .cls-2 {
        fill: #1f1d2a;
      }

      .cls-3 {
        fill: #ebeaff;
      }

      .cls-4 {
        fill: #fafafa;
      }
    </style>
  </defs>
  <g id="Layer_1-2" data-name="Layer 1">
    <g>
      <g>
        <path class="cls-3" d="M395.14,10.86l2.28-4.01-3.52-.44c-.24,1.91.47,3.45,1.24,4.45Z"/>
        <path class="cls-3" d="M57.34,116.37c-2.81,3.95-5.77,8.45-7.53,11.45C21.53,176.56,8.06,215.31,6.15,253.46c-3.28,74.79,47,128.51,134.49,143.67,19.33,3.37,36.83,5.01,53.49,5.01.17,0,.33,0,.5,0,67.51-.62,154.92-24.83,197.64-90.92,27.8-43.8,28.75-98.46,2.65-153.86-1.55-3.42-3.12-7.04-4.35-10.91-3.53-10.55-5.12-22.19-4.58-33.68.05-.83.11-1.63.18-2.43.06-.67.11-1.34.15-1.99l.03-.33c.05-.47.16-1.25.26-2.06.11-.85.23-1.73.28-2.23l.07-.49c.08-.39.2-1.1.33-1.83.17-1,.36-2.04.46-2.52l.06-.25c.14-.57.28-1.18.41-1.79.19-.86.38-1.73.59-2.52.41-1.49.94-3.36,1.43-4.87l-.05-.05,1.22-3.44.7-3.89.75.08c1.83-4.57,3.83-8.77,6.09-12.76,1.24-2.27,2.67-4.55,4.05-6.75,3.23-5.17,6.28-10.05,7.45-15.38l.03-.13c3.19-13.12-2.25-26.96-13.57-34.72-.25-.14-.49-.3-.73-.48l-1.22-.72.05-.1c-.8-.53-1.57-1-2.32-1.39-10.19-5.36-23.25-3.76-32.18-2.08-26.02,4.81-49.48,18.28-69.42,30.52-18.09,11.14-34.02,21.46-48.62,31.49-.78,1.04-1.89,1.84-3.24,2.26-1.33.41-2.67.41-3.87.05-17.31.14-34.33,3.12-50.63,8.88-5.02,1.77-8.9,1.27-11.52-1.5-4.28-4.51-1.4-11.49-.31-14.12,1.4-3.28,2.76-5.54,4.65-8.35.34-.51,1.39-2.07,2.03-3.11,1.36-2.17,2.94-5.43,2.94-9.04,0-6.23-3.39-13.67-10.84-15.31-12.87-2.95-32.22,9.62-43.79,17.14l-.74.48c-26.12,17.77-49.6,41.11-69.8,69.38Z"/>
      </g>
      <path class="cls-2" d="M44.62,124.81c2.04-3.47,5.17-8.18,7.83-11.92,19.59-27.41,43.43-51.89,71.36-70.89,12.52-8.13,33.53-22.06,49.14-18.48,9.76,2.14,15.56,11.46,15.56,21.16,0,4.33-1.54,8.55-3.82,12.18-.61,1-1.51,2.35-2.17,3.33-1.81,2.68-2.94,4.61-4.08,7.28-2.77,6.72-4.04,12.81.42,19.2,0,0-14.37-3.79-14.37-3.79,5.92-2.94,12.01-5.53,18.25-7.73,18.73-6.62,38.68-9.74,58.53-9.16,0,0-7.08,2.07-7.08,2.07,17.58-12.24,35.52-23.8,53.78-35.04,22.1-13.57,45.53-26.51,71.45-31.3,11.76-2.2,24.99-3.16,36.09,2.68,1.36.72,2.68,1.56,3.89,2.42,0,0,.2.14.2.14l.11.08.06.04c.25.23.14-.03-1.76-1.07l1.45.85c13.78,8.94,20.77,25.6,16.86,41.66-1.95,8.89-7.95,16.17-12.14,23.8-2.76,4.87-5,9.88-6.94,15.17,0,0,.79-4.39.79-4.39-.02.91-.14,1.86-.34,2.78-.13.74-.69,2.3-.58,1.97-.18.52-.61,1.85-.81,2.41-.53,1.51-1.23,3.99-1.67,5.57-.35,1.34-.65,2.89-.99,4.25-.17.82-.6,3.39-.77,4.29-.11,1-.44,3.37-.55,4.33-.08,1.42-.25,2.94-.33,4.35-.49,10.64.9,21.43,4.29,31.53,1.11,3.49,2.56,6.88,4.08,10.22,24.27,51.51,28.4,110.13-3.04,159.67-42.37,65.55-127.95,92.97-202.67,93.66-18.45.04-36.84-1.92-55.03-5.09C60.17,389.28-3.63,339.72.16,253.16c2.31-46.1,21.66-89.06,44.46-128.35h0ZM55.25,131.78C26.4,182.13.57,245.65,23.08,302.91c14.18,35.14,44.51,57.78,79.69,69.66,17.14,5.9,35.05,9.37,53.08,11.29,38.23,4.46,77.43.72,114.29-10.21,69.57-20.52,130.06-69.1,124.01-147.72-1.65-20.68-7.74-40.82-16.47-59.66-4.26-9-7.45-18.5-9.27-28.29-1.14-6.12-1.79-12.48-1.87-18.7-.13-4.27.17-8.91.54-13.16.21-1.53.5-4.11.72-5.6.19-1.1.79-4.44,1-5.56.93-4.17,2.03-8.68,3.45-12.71,0,0,.61-1.78.61-1.78l.31-.89.15-.45c.16-.46-.36.97-.44,1.57-.16.79-.22,1.61-.19,2.39l.79-4.39c1.18-3.18,2.49-6.37,3.94-9.52,3.33-7.42,7.96-14.69,12.18-21.45,1.47-2.47,2.25-4.26,2.57-6.95.49-4.21-1.29-8.63-4.46-11.45-.68-.65-1.58-1.26-2.35-1.81,0,0,1.45.85,1.45.85-1.92-1.06-2.05-1.33-1.82-1.12h0s-.03-.02-.03-.02l-.07-.05-.16-.11c-4.68-3.46-14.96-2.02-20.69-1-22.99,4.12-43.57,15.76-63.54,27.64-11.91,7.18-23.85,14.58-35.53,22.17-6.92,4.49-13.85,9.15-20.67,13.81-6.9-.33-13.92-.4-20.8.21-11.3.93-22.49,3.25-33.23,6.9-8.17,2.62-16.91,7.01-24.66,10.75,0,0-5.47-8.08-5.47-8.08-7.74-11.36-8.52-24.73-3.55-37.34.91-2.47,2.1-5.16,3.37-7.47,1.75-3.18,3.53-5.74,5.41-8.35.33-.45.74-1.09,1.05-1.55.06-.09.07-.12.1-.17l.09-.15.09-.15c.04-.05.02-.06.04-.08.02-.04.05-.09.08-.13,0,0-.01,0,0,.01,0,0,.02,0,.01.02,0,.01-.02.03-.02.05-.01.03.02.07.01.1-.01.02-.01.05,0,.07.03.04,0,0,0,0,0,0,0-.01.01-.02h.01s.01,0,0-.05c-.01-.11,0-.14-.02-.23-.02-.2-.08-.47-.13-.63-.03-.08-.04-.15-.03-.14,0,0,.01,0,.02.02,0,.01.02,0,.04.03.03.05.07.06.12.13.15.13.29.26.46.36.36.22.62.27.58.23-.04-.04-.36-.13-.87-.16-9.63.22-24.5,8.54-33.65,13.51-19.62,11.17-37.67,25.43-53.13,41.93-9.3,10.03-17.94,20.78-25,32.51h0Z"/>
      <path class="cls-2" d="M161.07,396.87c-10.4,13.86-9.5,23.16-8.65,26.96,4.64,20.71,40.73,26.2,61.39,25.1,11.81-.62,45.59-2.41,57.07-28.82,6.93-15.95,2.16-32.69,0-39.05"/>
      <path class="cls-2" d="M136.8,110.49c2.06-2.64,4.35-5.14,6.74-7.45,22.94-21.89,54.53-33.93,86.11-34.95,17.62-.35,35.57,2.71,51.42,10.56,5.01,2.57,3.17,10-2.42,10-3.06.16-6.06.02-9.11.09-2.24.07-4.47,0-6.69.08-10.94.26-21.71,1-32.48,2.51-28.78,3.95-56.37,13.63-82.9,25.3-1.28.54-2.73,1.23-4.02,1.73,0,0-1.18.33-1.18.33-4.83,1.34-8.54-4.27-5.46-8.19h0Z"/>
      <path class="cls-2" d="M328.08,71.68c11.11-9.33,22.27-13.5,29.03-15.96.05-.02.09-.03.14-.05,3.46-1.25,6.53,2.57,4.59,5.7-3.62,5.82-7.19,13.12-9.6,21.87-1.63,5.93-2.41,11.4-2.74,16.14-4.56-4-19.3-12.53-33.59-14.94,4.53-5.91,8.97-10.07,12.16-12.76Z"/>
      <path class="cls-2" d="M124.83,175.09c1.88-5.04,4.37-10.14,3.89-15.49-.67-7.43-7.4-13.46-14.77-14.62s-14.96,1.9-20.57,6.82c-5.61,4.92-9.46,11.54-12.53,18.34-5.07,11.25-8.25,23.73-6.42,35.93s9.37,24,20.84,28.55c11.47,4.55,26.48.03,31.64-11.18,7.58-16.46-8.25-31.83-2.08-48.35Z"/>
      <path class="cls-2" d="M71.92,291.04c-2.93-5.45-5.55-11.22-6.12-17.37-.57-6.16,1.21-12.81,5.87-16.86,7.46-6.48,19.23-4.19,27.68.95,8.44,5.15,15.2,13.12,24.38,16.79,23.06,9.23,30.57-7.12,40.92-8.54,9.06-1.25,16.21,9.76,36.57-1.3,12.46-6.77,18.39-21.43,28.33-31.56,7.45-7.59,14.72-14.66,24.32-19.23,11.84-5.65,26.82-8.37,39.86-6.92,19.6,2.18,36.5,17.36,43.1,35.94,6.61,18.58,3.69,39.77-5.45,57.25-9.13,17.48-24.02,31.48-40.7,41.98-27.83,17.52-60.23,27.84-93.03,25.5-4.91.48-27.99-2.91-35.6-5.07-9.3-2.63-18.33-6.19-26.94-10.57-16.97-8.63-32.34-20.46-44.91-34.77-7.04-8.02-13.21-16.81-18.26-26.21Z"/>
      <path class="cls-2" d="M185.7,181.93c-2.26-12.82,1.02-26.1,6.61-37.86,3.91-8.22,8.98-15.93,15.41-22.36,9.06-9.05,20.77-15.4,33.3-18.05,5.05-1.07,10.61-1.47,15.12,1.06,4.79,2.69,7.42,8.39,7.28,13.88-.14,5.49-2.72,10.7-6.3,14.87-3.44,4.01-7.79,7.19-11.07,11.34-5.71,7.22-7.69,17.23-5.15,26.08,1.55,5.41,4.7,10.58,4.29,16.19-.62,8.48-6.46,16.46-13.81,20.73-10.14,5.9-20.69,6.24-30.61-.93-8.07-5.83-13.36-15.22-15.07-24.94Z"/>
      <path class="cls-2" d="M142.13,243.11c-1.47-2.1-2.84-4.53-2.56-7.08.25-2.29,1.82-4.27,3.74-5.54s4.17-1.93,6.4-2.5c7.04-1.81,14.25-2.94,21.51-3.38,2.63-.16,5.31-.22,7.83.53s4.89,2.43,5.85,4.88c.86,2.2,1.2,6.69-.52,6.87-16.62,1.75-20.16,22.1-23.66,21.87-3.26-.21-7.32-4.03-9.69-6.01-3.37-2.8-6.38-6.05-8.9-9.64Z"/>
      <path class="cls-4" d="M214.92,269.45c-7.58,6.72-18.16,11.43-28.47,11.21-3.68-.1-7.3-.98-10.32-1.99-3.03-1.01-5.51-1.92-6.99-1.94-1.85-.06-3.4.76-5.23,1.8-2.23,1.3-4.76,3.09-7.64,4.71-8.53,5.14-18.47,5.75-27.73,2.74,4.91,13.27,15.33,24.58,28.52,29.82-1.77-4.51-3.44-9.94-.63-13.88,2.23-3.12,6.42-3.98,10.2-4.61,10.42-1.71,20.83-3.43,31.25-5.14,3.54-.58,7.18-1.16,10.68-.38,8.17,1.84,10.69,5.88,22.1,11.32-6.47-14.22-8.14-30.46-5.23-45.81-3.17,4.3-6.56,8.6-10.5,12.13Z"/>
      <path class="cls-2" d="M322.24,211.71c-7.92-6.14-17.63-10.37-27.71-11.48-16.18-1.59-32.65,1.72-46.94,9.45-8.61,4.83-15.26,11.34-21.87,18.13-2.24,2.27-4.39,4.78-6.3,7.29-6.35,8.17-10.57,16.52-18.52,22.55-4.97,3.45-11.59,6.17-16.99,6.05-3.62.03-9.68-1.38-13.77-2.44-2.64-.69-4.74-2.67-5.58-5.27h0c-.39-1.2-.88-2.53-2.02-3.08-.57-.28-1.23-.31-1.87-.26-4.03.32-4.36,2.59-3.69,5.27.61,2.42-.39,4.96-2.51,6.28-4.36,2.73-8.48,6.02-13.28,7.13-5.91,1.46-12.33-.16-17.82-2.77-6.33-3.21-10.92-7.88-17.36-12.45-8.29-6.01-18.74-9.96-29.13-7.37-11.64,2.88-17.26,15.15-15.64,26.28.84,6.58,3.63,12.57,6.69,18.17,19.54,35.68,53.53,62.93,92.6,74.29,10.49,2.69,21.1,4.27,31.86,5.41,1.63.14,3.36.26,5.04.2,0,0,0,0,0,0,36.91,2.9,73.81-9.63,103.95-30.51,15.37-10.81,28.84-24.8,37.16-41.85,14.75-29.63,11.28-67.96-16.32-89ZM198.02,362.26c-3.13.13-6.24-.17-9.39-.5-7.73-.85-15.61-1.95-23.2-3.58-37.45-9.63-71.37-34.94-89.55-69.28-4.75-8.56-8.62-20.13-1.82-27.74,6.05-6.02,16.08-3.08,22.63.91,8.5,5.41,16.19,14.36,26.48,17.97,9.95,3.99,20.94,3.77,30.25-1.84,2.88-1.62,5.42-3.41,7.64-4.71,1.83-1.04,3.38-1.86,5.23-1.8,1.49.03,3.97.93,6.99,1.94,3.02,1,6.64,1.89,10.32,1.99,10.32.22,20.89-4.49,28.47-11.21,6.9-6.17,12.09-14.72,17.43-21.47,1.7-2.17,3.46-4.15,5.41-6.06,5.81-5.82,12.15-11.78,19.14-15.6,11.75-6.23,25.73-8.85,38.94-7.53,18.07,2.14,33.22,16.97,38.25,34.15,17.75,69.07-73.85,118.85-133.24,114.35Z"/>
      <path class="cls-1" d="M254.35,384.3c-1.61-1.82-1.06-.52-2.61-3.92-1.81-3.97-6.05-6.71-8.76-10.07-3.01-3.73-5.71-8.79-4.37-13.73,1.16-4.28,5.13-6.76,9.31-7.18,5.1-.5,3.37-6.18-1.44-6.84-.23-.03-1.49,0-1.73-.02-10.1-1.28-18.22-2.46-23.51,7.56-1.4,2.66-2.5,5.6-3.19,8.65-2.36-4.81-5.17-9.19-10.71-9.8-3.91-.43-7.99,1.74-9.33,5.53-1.68,4.75,1.38,9.08,3.22,13.24,2.04,4.61,3.8,8.45,5.61,13.16,1.67,4.36,3.86,8.29-2.68,14.98-1.79,1.71-1.23,5.26,1.04,6.92-1.91-.18-3-1.95-4.93-1.98-5.23-.06-9.21-1.32-14.42-.93-4.17.31-12.05,2.95-15.7,5.33-3.39,2.21-3.56,7.18-3.67,10.83-.13,4.33.73,8.07,3.19,11.66,1.09,1.58,2.58,2,3.97,1.68,5.89,6.31,20.2,10.08,27.51,9.52,13.16-1.01,18.31-.56,30.81-4.85,6.91-2.37,20.06-8.4,23.15-14.81,1.58-3.28,2.97-4.51,4.25-7.94.2-.53-1.9-5.07-1.74-5.61.32-.4.63-.83.9-1.29,1.98-3.44-1.47-17.04-4.18-20.11ZM235.44,410.49c.81.05,1.63.08,2.43.04,2.66-.13,5.32-.9,7.23-2.6-.15.25-.31.49-.49.73-1.76,2.33-5.65,2.36-9.18,1.83ZM249.51,401.65c-.7.7-1.41,1.3-1.61,1.51.66-1.64,1.37-3.31,2.03-4.99-.09,1.17-.2,2.33-.42,3.48Z"/>
      <path class="cls-2" d="M256.13,381.72c-2.91-3.9-6.83-7.39-9.29-11.26-2.34-3.66-3.97-7.76-3.36-11.98.55-3.66,3.73-7.55,7.46-7.69.38-.01.73-.13,1.04-.31.27.07.54.15.81.21,2.04.65,3.86-1.75,2.65-3.55-2.49-3.76-6.11-6.31-10.01-8.27-4.4-2.33-9.75-2.9-14.5-1.5-6.49,1.83-11.66,7.07-13.19,13.66,0,.05,0,.09-.02.14-.68-1.05-1.6-2.02-2.9-2.88-8.17-5.92-20.67-1.91-21.93,8.66-.78,7.32,3.76,12.92,7.61,18.4,4.81,6.8,8.36,16.75-.11,21.92-4.3-.8-8.73-.93-13.07-.57-8.82.85-19.73,4.66-23.21,13.77-2.05,5.84-.8,12.37,2.42,17.48,15.2,22.97,58.06,18.05,78.61,5.18,9.33-5.56,17.67-14.57,18.96-25.83,1.14-9.31-2.63-18.27-8-25.59ZM211.13,383.81c-.77-4.39-2.64-8.39-4.91-12.11-2.53-3.91-6.73-9.61-6.07-13.86.98-5.76,8.13-6.32,11.79-2.59.52.56,1.07,2.38,1.6,4.27,1.45,6.05,4.75,12.12,8.93,16.6.36.4.95.55,1.47.33.66-.28.97-1.04.69-1.7-3.1-7.12-4.31-14.95-1.37-22.09,2.65-5.52,9.88-8.28,15.48-6.54,2.03.66,3.98,1.36,5.94,2.05-8.93,5.73-8.05,17.41-3.03,25.47.51.88,1.06,1.7,1.62,2.5.88,1.7,1.7,3.43,2.41,5.19,2.3,5.63,3.54,11.8,1.53,17.62-1.68,5.62-6.92,9.86-12.72,10.52-.58.06-1.58.1-2.16.07-9.1-.72-16.17-6.64-24.45-10.09-.54-.22-1.09-.41-1.64-.61,4.16-3.63,6-9.45,4.88-15.04ZM240.99,426.15c-16.99,10.4-54.38,15.21-67.73-2.61-2.6-3.75-3.87-9.17-1.3-13.19,1.77-2.47,4.35-4.29,7.34-5.74,8.33-3.79,18.47-4.34,27.06-1.22,8.43,3.26,16.31,9.33,25.73,9.99,4.62.32,9.27-1.26,12.89-4.08,6.36-4.92,8.47-12.69,7.79-20.3,8.34,14.81,3.7,28.13-11.78,37.14Z"/>
      <g>
        <path class="cls-2" d="M578.89,90.54c0,6.82-1.57,13.23-4.7,19.21-3.13,5.99-7.45,11.17-12.95,15.56-5.5,4.39-11.97,7.87-19.42,10.44-7.45,2.58-15.56,3.86-24.34,3.86-3.9.14-7.55-.03-10.96-.52-3.41-.49-6.58-1.15-9.5-1.98v16.08c0,4.74.28,8.56.83,11.49.56,2.92,1.15,5.26,1.77,7,.63,1.74,1.22,3.1,1.77,4.07.56.98.84,1.95.84,2.92s-.42,1.81-1.26,2.51c-.83.7-1.81,1.04-2.92,1.04h-44.7c-.97,0-1.88-.35-2.71-1.04-.83-.69-1.25-1.53-1.25-2.51s.28-1.95.83-2.92c.56-.97,1.15-2.33,1.78-4.07.62-1.74,1.18-4.07,1.67-7,.49-2.92.73-6.75.73-11.49v-82.71c0-4.73-.24-8.56-.73-11.49-.49-2.92-1.04-5.25-1.67-7-.63-1.74-1.22-3.1-1.78-4.07-.56-.97-.83-1.88-.83-2.72,0-1.11.42-1.98,1.25-2.61s1.74-.94,2.71-.94h59.52c9.61,0,18.45,1.22,26.52,3.66,8.08,2.44,15.04,5.81,20.89,10.13,5.85,4.32,10.41,9.47,13.68,15.46,3.27,5.99,4.91,12.53,4.91,19.63ZM533.15,95.34c0-11.83-2.23-21.27-6.68-28.3-4.46-7.03-10.44-10.68-17.96-10.97h-.83c-1.26,0-2.51.31-3.76.94-1.26.63-2.41,1.46-3.45,2.51-1.04,1.04-1.88,2.23-2.5,3.55-.62,1.32-.94,2.61-.94,3.86v47.2c0,1.39.59,2.71,1.77,3.97s2.54,2.4,4.07,3.45c1.53,1.04,3.17,1.88,4.91,2.51,1.74.63,3.1.94,4.07.94,6.27,0,11.38-2.54,15.35-7.62,3.97-5.08,5.95-12.43,5.95-22.03Z"/>
        <path class="cls-2" d="M590.17,104.33c0-4.73-.28-8.32-.83-10.76-.56-2.43-1.15-4.25-1.77-5.43-.63-1.18-1.22-2.05-1.78-2.61-.56-.56-.83-1.32-.83-2.3s.38-1.81,1.15-2.51c.76-.69,1.77-1.04,3.03-1.04h15.98c4.39,0,8.07.04,11.07.11,2.99.07,5.4.11,7.21.11h4.18c1.11,0,2.09.35,2.92,1.04.83.7,1.25,1.53,1.25,2.51s-.07,1.74-.21,2.3c-.14.56-.32,1.43-.52,2.61-.21,1.18-.38,3-.52,5.43-.14,2.44-.21,6.09-.21,10.97v48.25c0,3.34.94,5.81,2.82,7.41,1.88,1.6,4.21,2.4,7,2.4,1.95,0,3.86-.49,5.74-1.46,1.88-.97,3.55-2.3,5.01-3.97s2.64-3.62,3.55-5.85c.9-2.23,1.36-4.6,1.36-7.1v-40.1c0-4.73-.21-8.32-.62-10.76-.42-2.43-.87-4.25-1.36-5.43-.49-1.18-.94-2.05-1.36-2.61-.42-.56-.62-1.32-.62-2.3s.38-1.81,1.15-2.51c.77-.69,1.71-1.04,2.82-1.04,12.53,0,21.75.04,27.67.11,5.91.07,9.85.11,11.8.11,1.11,0,2.09.35,2.92,1.04.83.7,1.25,1.53,1.25,2.51s-.17,1.74-.52,2.3c-.35.56-.77,1.43-1.25,2.61-.49,1.18-.91,3-1.25,5.43-.35,2.44-.52,6.09-.52,10.97v52.84c0,4.74.28,8.32.83,10.76.56,2.44,1.15,4.25,1.77,5.43.63,1.18,1.22,2.06,1.77,2.61.56.56.84,1.32.84,2.3s-.42,1.81-1.26,2.51c-.83.7-1.81,1.04-2.92,1.04h-36.96c-1.12,0-2.09-.35-2.92-1.04-.83-.69-1.26-1.53-1.26-2.51v-10.44c-1.81,2.37-3.73,4.53-5.74,6.48-2.02,1.95-4.28,3.65-6.79,5.12s-5.26,2.57-8.25,3.34c-2.99.76-6.3,1.15-9.92,1.15-5.01,0-9.64-.73-13.89-2.19-4.25-1.46-7.94-3.48-11.07-6.06-3.13-2.57-5.57-5.64-7.31-9.19-1.74-3.55-2.61-7.34-2.61-11.38v-51.17Z"/>
        <path class="cls-2" d="M784.61,77.8c2.78,0,5.4.56,7.83,1.67,2.43,1.12,4.59,2.68,6.47,4.7,1.88,2.02,3.34,4.35,4.39,7,1.04,2.65,1.56,5.5,1.56,8.56,0,3.34-.56,6.41-1.67,9.19-1.12,2.79-2.61,5.19-4.49,7.2-1.88,2.02-4.04,3.62-6.47,4.8-2.44,1.18-5.05,1.78-7.83,1.78-2.92,0-5.4-.56-7.42-1.67-2.02-1.11-3.86-2.3-5.53-3.55-1.67-1.25-3.24-2.43-4.7-3.55-1.46-1.11-3.1-1.67-4.91-1.67-.98,0-1.92.28-2.82.83-.91.56-1.67,1.57-2.3,3.03-.62,1.46-1.11,3.41-1.46,5.85-.35,2.44-.52,5.47-.52,9.08v22.35c0,4.74.28,8.53.84,11.38.55,2.86,1.15,5.15,1.77,6.89.63,1.74,1.18,3.1,1.67,4.07.49.98.73,1.95.73,2.92s-.38,1.81-1.15,2.51c-.77.7-1.71,1.04-2.82,1.04h-41.98c-1.12,0-2.09-.35-2.92-1.04-.83-.69-1.25-1.53-1.25-2.51s.28-1.95.83-2.92c.56-.97,1.15-2.33,1.77-4.07.63-1.74,1.18-4.07,1.67-7,.49-2.92.73-6.75.73-11.49v-48.66c0-4.73-.24-8.32-.73-10.76-.49-2.43-1.04-4.25-1.67-5.43-.62-1.18-1.22-2.05-1.77-2.61-.56-.56-.83-1.32-.83-2.3s.38-1.81,1.15-2.51c.77-.69,1.71-1.04,2.82-1.04h38.43c1.11,0,2.09.35,2.92,1.04.83.7,1.25,1.53,1.25,2.51,0,1.81-.24,3.73-.73,5.74-.49,2.02-.73,5.4-.73,10.13v2.72c1.53-2.78,3.34-5.6,5.43-8.46,2.09-2.85,4.39-5.46,6.89-7.83,2.51-2.37,5.22-4.28,8.15-5.74s6.06-2.19,9.4-2.19Z"/>
        <path class="cls-2" d="M886.12,77.8c2.78,0,5.4.56,7.83,1.67,2.43,1.12,4.59,2.68,6.47,4.7,1.88,2.02,3.34,4.35,4.39,7,1.04,2.65,1.56,5.5,1.56,8.56,0,3.34-.56,6.41-1.67,9.19-1.12,2.79-2.61,5.19-4.49,7.2-1.88,2.02-4.04,3.62-6.47,4.8-2.44,1.18-5.05,1.78-7.83,1.78-2.92,0-5.4-.56-7.42-1.67-2.02-1.11-3.86-2.3-5.53-3.55-1.67-1.25-3.24-2.43-4.7-3.55-1.46-1.11-3.1-1.67-4.91-1.67-.98,0-1.92.28-2.82.83-.91.56-1.67,1.57-2.3,3.03-.62,1.46-1.11,3.41-1.46,5.85-.35,2.44-.52,5.47-.52,9.08v22.35c0,4.74.28,8.53.84,11.38.55,2.86,1.15,5.15,1.77,6.89.63,1.74,1.18,3.1,1.67,4.07.49.98.73,1.95.73,2.92s-.38,1.81-1.15,2.51c-.77.7-1.71,1.04-2.82,1.04h-41.98c-1.12,0-2.09-.35-2.92-1.04-.83-.69-1.25-1.53-1.25-2.51s.28-1.95.83-2.92c.56-.97,1.15-2.33,1.77-4.07.63-1.74,1.18-4.07,1.67-7,.49-2.92.73-6.75.73-11.49v-48.66c0-4.73-.24-8.32-.73-10.76-.49-2.43-1.04-4.25-1.67-5.43-.62-1.18-1.22-2.05-1.77-2.61-.56-.56-.83-1.32-.83-2.3s.38-1.81,1.15-2.51c.77-.69,1.71-1.04,2.82-1.04h38.43c1.11,0,2.09.35,2.92,1.04.83.7,1.25,1.53,1.25,2.51,0,1.81-.24,3.73-.73,5.74-.49,2.02-.73,5.4-.73,10.13v2.72c1.53-2.78,3.34-5.6,5.43-8.46,2.09-2.85,4.39-5.46,6.89-7.83,2.51-2.37,5.22-4.28,8.15-5.74s6.06-2.19,9.4-2.19Z"/>
        <path class="cls-2" d="M497.02,277.43l14.62-.42c4.31-.14,7.62-1.18,9.92-3.13,2.3-1.95,4.18-4.07,5.64-6.37,1.47-2.3,2.79-4.42,3.97-6.37,1.18-1.95,2.82-2.92,4.91-2.92.97,0,1.81.42,2.5,1.25.7.84,1.04,1.81,1.04,2.92v49.92c0,1.12-.35,2.09-1.04,2.92-.7.83-1.53,1.25-2.5,1.25-2.09,0-3.73-1.22-4.91-3.65-1.18-2.43-2.5-5.15-3.97-8.15-1.46-2.99-3.34-5.74-5.64-8.25-2.29-2.51-5.61-3.83-9.92-3.97l-14.62-.42v34.04c0,4.74.28,8.56.83,11.49.56,2.92,1.15,5.26,1.77,7,.63,1.74,1.22,3.1,1.77,4.07.56.98.84,1.95.84,2.92s-.42,1.81-1.26,2.51c-.83.7-1.81,1.04-2.92,1.04h-44.7c-1.11,0-2.05-.35-2.82-1.04-.77-.69-1.15-1.53-1.15-2.51s.28-1.95.83-2.92c.56-.97,1.15-2.33,1.78-4.07.62-1.74,1.18-4.04,1.67-6.89.49-2.85.73-6.65.73-11.38v-82.92c0-4.73-.24-8.56-.73-11.49-.49-2.92-1.04-5.25-1.67-7-.63-1.74-1.22-3.1-1.78-4.07-.56-.97-.83-1.88-.83-2.72,0-1.11.38-1.98,1.15-2.61s1.71-.94,2.82-.94h78.53c4.73,0,8.39-.1,10.97-.31,2.57-.21,4.55-.45,5.95-.73,1.39-.28,2.41-.52,3.03-.73.62-.21,1.36-.31,2.2-.31,1.11,0,1.98.38,2.61,1.15.62.77.94,1.78.94,3.03.14,1.95.28,4.53.42,7.73.14,3.2.24,6.58.31,10.13s.14,6.96.21,10.23c.07,3.27.11,5.95.11,8.04.14,1.81-.49,3.41-1.88,4.8-1.39,1.39-3.06,2.09-5.01,2.09-1.81,0-3.31-.76-4.49-2.3-1.18-1.53-2.37-3.41-3.55-5.64-1.18-2.23-2.51-4.7-3.97-7.41-1.46-2.71-3.24-5.19-5.32-7.41-2.09-2.23-4.67-4.11-7.73-5.64-3.07-1.53-6.89-2.3-11.49-2.3h-1.26c-1.53,0-3.27.31-5.22.94-1.95.63-3.8,1.46-5.53,2.51-1.75,1.04-3.21,2.23-4.39,3.55-1.18,1.32-1.77,2.61-1.77,3.86v37.59Z"/>
        <path class="cls-2" d="M606.46,250.69c6.68,0,12.91.94,18.69,2.82,5.78,1.88,10.82,4.46,15.14,7.73,4.31,3.27,7.69,7.14,10.13,11.59,2.43,4.46,3.66,9.19,3.66,14.2,0,7.38-1.95,13.3-5.85,17.75-3.9,4.46-8.74,7.73-14.51,9.82-5.78,2.09-11.98,3.1-18.59,3.03-6.61-.07-12.71-1.01-18.27-2.82,1.11,2.65,2.47,5.12,4.07,7.41,1.6,2.3,3.48,4.28,5.64,5.95s4.66,3,7.52,3.97c2.85.98,6.09,1.46,9.71,1.46,6.26,0,10.96-1.18,14.1-3.55,3.13-2.37,5.6-4.98,7.41-7.83,1.81-2.85,3.41-5.46,4.8-7.83,1.39-2.37,3.41-3.55,6.06-3.55,1.81,0,3.34.66,4.6,1.98,1.25,1.32,1.88,2.96,1.88,4.91,0,2.23-1.01,5.57-3.03,10.03-2.02,4.46-5.19,8.84-9.5,13.16s-9.92,8.11-16.81,11.38c-6.89,3.27-15.14,4.91-24.75,4.91-8.22,0-15.77-1.32-22.66-3.97-6.89-2.64-12.84-6.3-17.86-10.97-5.01-4.66-8.91-10.27-11.7-16.81-2.79-6.54-4.18-13.71-4.18-21.51s1.36-14.72,4.07-21.2c2.72-6.48,6.51-12.08,11.38-16.81,4.87-4.73,10.62-8.46,17.23-11.17,6.61-2.71,13.82-4.07,21.62-4.07ZM606.04,263.22c-2.23,0-4.18.59-5.85,1.78-1.67,1.18-3.07,2.92-4.18,5.22s-1.92,5.12-2.4,8.46c-.49,3.34-.73,7.24-.73,11.7,0,2.09.07,4.25.21,6.47.13,2.23.35,4.39.62,6.48,3.06-.42,6.02-1.22,8.88-2.4,2.85-1.18,5.36-2.78,7.52-4.8,2.16-2.02,3.89-4.42,5.22-7.2,1.32-2.78,1.98-5.99,1.98-9.61,0-5.29-.98-9.29-2.92-12.01-1.95-2.71-4.74-4.07-8.36-4.07Z"/>
        <path class="cls-2" d="M722.79,250.69c8.91,0,16.36,1.29,22.35,3.86,5.98,2.58,10.76,5.78,14.31,9.61,3.55,3.83,6.06,7.9,7.52,12.22,1.46,4.32,2.19,8.22,2.19,11.69,0,4.32-1.6,7.76-4.8,10.34-3.2,2.58-7.66,3.86-13.36,3.86-3.76,0-6.48-.94-8.15-2.82-1.67-1.88-2.86-4.21-3.55-7-.7-2.78-1.11-5.81-1.25-9.09-.14-3.27-.52-6.3-1.15-9.08-.62-2.78-1.71-5.12-3.24-7-1.53-1.88-4.04-2.82-7.52-2.82-3.2,0-5.99.77-8.35,2.3-2.37,1.53-4.32,3.73-5.85,6.58-1.53,2.86-2.68,6.26-3.45,10.23-.77,3.97-1.15,8.39-1.15,13.26,0,5.43.56,10.37,1.67,14.83,1.11,4.46,2.78,8.32,5.01,11.59,2.22,3.27,5.01,5.81,8.35,7.62,3.34,1.81,7.31,2.72,11.91,2.72,5.85,0,10.55-1.18,14.1-3.55,3.55-2.37,6.58-4.98,9.09-7.83,2.51-2.85,4.73-5.46,6.68-7.83,1.95-2.37,4.25-3.55,6.89-3.55,1.81,0,3.34.66,4.6,1.98,1.25,1.32,1.88,2.96,1.88,4.91,0,2.23-1.04,5.57-3.13,10.03-2.09,4.46-5.33,8.84-9.71,13.16-4.39,4.32-9.99,8.11-16.81,11.38s-14.97,4.91-24.43,4.91c-8.22,0-15.77-1.32-22.66-3.97-6.89-2.64-12.84-6.3-17.86-10.97-5.01-4.66-8.91-10.27-11.7-16.81-2.79-6.54-4.18-13.71-4.18-21.51,0-7.38,1.39-14.27,4.18-20.68,2.78-6.4,6.65-12.04,11.59-16.92,4.94-4.87,10.82-8.7,17.65-11.49,6.82-2.78,14.27-4.18,22.35-4.18Z"/>
        <path class="cls-2" d="M827.01,224.38c.56,0,1.32.28,2.3.83.97.56,1.46,1.6,1.46,3.13v24.44h28.19c2.09,0,3.76.63,5.01,1.88,1.25,1.25,1.88,2.86,1.88,4.8,0,3.34-.49,5.95-1.46,7.83-.98,1.88-2.65,2.68-5.01,2.4h-28.61v55.14c0,5.85.59,9.92,1.77,12.22,1.18,2.3,3.72,3.45,7.62,3.45s6.79-1.36,8.67-4.07,3.51-5.74,4.91-9.09c1.39-3.34,2.92-6.37,4.6-9.08,1.67-2.72,4.25-4.07,7.73-4.07,2.78,0,5.05.87,6.79,2.61,1.74,1.74,2.61,4,2.61,6.79,0,3.48-.87,7.21-2.61,11.17-1.74,3.97-4.46,7.62-8.15,10.97-3.69,3.34-8.39,6.09-14.1,8.25-5.71,2.16-12.53,3.24-20.47,3.24-5.85,0-11.21-.83-16.08-2.51-4.88-1.67-9.05-4.04-12.53-7.1-3.48-3.06-6.16-6.72-8.04-10.97-1.88-4.25-2.82-8.94-2.82-14.1v-38.85c0-4.18-.59-7.45-1.78-9.82-1.18-2.37-2.5-4.21-3.97-5.53-1.46-1.32-2.79-2.37-3.97-3.13-1.18-.76-1.77-1.63-1.77-2.61s.38-1.81,1.15-2.51c.77-.69,1.78-1.04,3.03-1.04,6.27,0,11.73-1.81,16.39-5.43,4.66-3.62,8.74-7.59,12.22-11.91,3.48-4.31,6.44-8.28,8.88-11.9,2.43-3.62,4.49-5.43,6.16-5.43Z"/>
        <path class="cls-2" d="M933.74,250.69c8.07,0,15.52,1.39,22.35,4.18,6.82,2.79,12.7,6.61,17.65,11.49,4.94,4.88,8.81,10.52,11.59,16.92,2.78,6.41,4.18,13.3,4.18,20.68s-1.39,14.1-4.18,20.57c-2.79,6.48-6.65,12.15-11.59,17.02-4.94,4.88-10.83,8.7-17.65,11.49-6.83,2.78-14.27,4.18-22.35,4.18s-15.53-1.39-22.35-4.18c-6.83-2.78-12.71-6.61-17.65-11.49-4.94-4.87-8.81-10.55-11.59-17.02-2.79-6.47-4.18-13.33-4.18-20.57s1.39-14.27,4.18-20.68c2.78-6.4,6.65-12.04,11.59-16.92,4.94-4.87,10.82-8.7,17.65-11.49,6.82-2.78,14.27-4.18,22.35-4.18ZM937.08,342.59c1.95,0,3.55-.56,4.8-1.67,1.25-1.11,2.3-2.85,3.13-5.22.83-2.37,1.43-5.36,1.77-8.98.35-3.62.52-8,.52-13.16,0-7.38-.38-14.06-1.15-20.05-.77-5.98-1.88-11.07-3.34-15.25-1.46-4.18-3.24-7.38-5.33-9.61-2.09-2.22-4.46-3.34-7.1-3.34-1.81,0-3.38.56-4.7,1.67-1.32,1.12-2.4,2.82-3.24,5.12-.84,2.3-1.43,5.29-1.78,8.98-.35,3.69-.52,8.04-.52,13.05,0,7.52.38,14.27,1.15,20.26.76,5.99,1.88,11.07,3.34,15.25,1.46,4.18,3.24,7.38,5.33,9.61,2.09,2.23,4.45,3.34,7.1,3.34Z"/>
      </g>
    </g>
  </g>
</svg>