<?xml version="1.0" encoding="UTF-8"?>
<svg id="Layer_1" data-name="Layer 1" xmlns="http://www.w3.org/2000/svg" viewBox="0 0 1020 462.91">
  <defs>
    <style>
      .cls-1 {
        fill: #09090b;
      }

      .cls-2 {
        fill: #ff4aa0;
      }

      .cls-3 {
        fill: #fafafa;
      }
    </style>
  </defs>
  <g>
    <path class="cls-3" d="M407.32,11.19l2.35-4.13-3.63-.45c-.24,1.97.48,3.55,1.28,4.58Z"/>
    <path class="cls-3" d="M59.11,119.96c-2.9,4.07-5.94,8.71-7.76,11.81C22.19,182,8.31,221.94,6.34,261.27c-3.38,77.09,48.45,132.47,138.63,148.1,19.92,3.47,37.97,5.16,55.14,5.16.17,0,.34,0,.51,0,69.59-.64,159.69-25.6,203.73-93.72,28.66-45.15,29.64-101.49,2.74-158.6-1.6-3.52-3.22-7.25-4.49-11.25-3.64-10.87-5.28-22.88-4.73-34.71.05-.85.12-1.68.19-2.51.06-.69.12-1.38.16-2.05l.03-.34c.05-.48.16-1.29.27-2.13.11-.87.23-1.78.29-2.3l.08-.51c.08-.4.21-1.13.34-1.89.18-1.03.37-2.1.47-2.6l.06-.26c.15-.59.29-1.22.43-1.85.2-.89.4-1.78.61-2.6.42-1.53.97-3.46,1.47-5.02l-.05-.05,1.25-3.55.72-4.01.77.08c1.88-4.71,3.95-9.04,6.28-13.16,1.28-2.34,2.75-4.69,4.17-6.96,3.33-5.33,6.47-10.36,7.68-15.85l.03-.14c3.29-13.52-2.32-27.79-13.99-35.79-.25-.14-.51-.31-.75-.49l-1.26-.74.06-.1c-.82-.55-1.62-1.03-2.39-1.43-10.51-5.52-23.96-3.87-33.17-2.15-26.82,4.96-51,18.84-71.56,31.46-18.65,11.49-35.07,22.12-50.12,32.46-.8,1.07-1.95,1.9-3.34,2.33-1.38.43-2.75.42-3.99.05-17.85.14-35.39,3.22-52.2,9.16-5.18,1.83-9.17,1.31-11.88-1.55-4.41-4.65-1.44-11.85-.32-14.56,1.44-3.38,2.85-5.71,4.8-8.6.35-.52,1.44-2.14,2.09-3.21,1.41-2.23,3.03-5.6,3.03-9.32,0-6.42-3.5-14.09-11.18-15.78-13.26-3.04-33.22,9.92-45.14,17.66l-.76.5c-26.92,18.32-51.13,42.38-71.95,71.52Z"/>
  </g>
  <path class="cls-1" d="M46,128.65c2.1-3.58,5.33-8.43,8.08-12.29,20.19-28.25,44.77-53.49,73.56-73.07,12.91-8.38,34.56-22.74,50.65-19.05,10.06,2.21,16.04,11.81,16.04,21.81,0,4.47-1.58,8.81-3.94,12.56-.63,1.03-1.56,2.42-2.24,3.43-1.86,2.76-3.04,4.75-4.21,7.51-2.86,6.93-4.17,13.2.43,19.79,0,0-14.82-3.9-14.82-3.9,6.1-3.03,12.38-5.7,18.81-7.97,19.3-6.82,39.87-10.04,60.34-9.45,0,0-7.3,2.13-7.3,2.13,18.12-12.62,36.62-24.53,55.43-36.12,22.78-13.99,46.93-27.32,73.66-32.27,12.12-2.27,25.76-3.25,37.2,2.76,1.4.74,2.76,1.61,4,2.49,0,0,.2.15.2.15l.11.08.06.05c.26.23.14-.03-1.81-1.1l1.49.88c14.21,9.22,21.41,26.38,17.38,42.95-2.01,9.16-8.2,16.67-12.51,24.54-2.85,5.02-5.16,10.19-7.16,15.64,0,0,.81-4.53.81-4.53-.02.94-.14,1.92-.35,2.87-.13.76-.71,2.37-.59,2.03-.19.53-.63,1.91-.83,2.49-.54,1.56-1.27,4.12-1.72,5.74-.36,1.38-.67,2.98-1.02,4.38-.17.85-.62,3.5-.8,4.42-.11,1.03-.45,3.47-.57,4.46-.09,1.46-.26,3.03-.34,4.48-.51,10.97.93,22.09,4.43,32.51,1.14,3.6,2.64,7.09,4.2,10.53,25.01,53.09,29.28,113.53-3.14,164.6-43.68,67.57-131.9,95.84-208.91,96.54-19.02.04-37.97-1.98-56.72-5.25C62.03,401.27-3.75,350.19.17,260.96c2.38-47.53,22.33-91.81,45.83-132.31h0ZM56.95,135.84C27.22,187.75.58,253.22,23.79,312.25c14.62,36.22,45.88,59.56,82.14,71.81,17.67,6.08,36.13,9.66,54.72,11.64,39.41,4.59,79.82.74,117.81-10.52,71.71-21.15,134.07-71.23,127.84-152.27-1.7-21.32-7.97-42.08-16.98-61.49-4.39-9.27-7.68-19.07-9.55-29.16-1.18-6.31-1.84-12.87-1.93-19.28-.14-4.4.18-9.19.55-13.56.22-1.58.52-4.23.74-5.78.2-1.13.81-4.58,1.03-5.73.96-4.29,2.1-8.95,3.56-13.11,0,0,.63-1.84.63-1.84l.31-.92.16-.46c.16-.48-.37,1-.45,1.62-.16.82-.23,1.66-.2,2.47l.81-4.53c1.22-3.28,2.56-6.56,4.06-9.82,3.43-7.64,8.2-15.14,12.56-22.11,1.52-2.55,2.32-4.39,2.65-7.16.51-4.34-1.33-8.89-4.6-11.81-.7-.67-1.63-1.3-2.43-1.87,0,0,1.49.88,1.49.88-1.97-1.09-2.12-1.37-1.88-1.15h0s-.03-.03-.03-.03l-.07-.05-.16-.12c-4.82-3.57-15.42-2.08-21.32-1.03-23.7,4.25-44.91,16.25-65.5,28.49-12.27,7.4-24.59,15.03-36.63,22.85-7.14,4.63-14.28,9.43-21.31,14.23-7.11-.34-14.35-.41-21.44.21-11.65.96-23.18,3.35-34.26,7.12-8.42,2.7-17.43,7.22-25.42,11.08,0,0-5.64-8.33-5.64-8.33-7.98-11.71-8.78-25.49-3.66-38.49.94-2.54,2.16-5.32,3.47-7.7,1.8-3.28,3.64-5.91,5.58-8.6.34-.47.77-1.12,1.08-1.6.06-.09.07-.12.1-.18l.09-.15.1-.15c.04-.06.02-.06.04-.09.02-.05.05-.09.09-.13,0,0-.01,0,0,.01,0,0,.02,0,.01.02,0,.02-.02.03-.02.05-.01.03.02.08.01.1-.01.02-.01.05,0,.08.03.04,0,0,0,0,0,0,0-.02.01-.02h.01s.01,0,0-.05c-.01-.11,0-.14-.02-.23-.02-.2-.09-.49-.13-.65-.03-.09-.04-.16-.03-.14,0,0,.01,0,.02.02,0,.01.02,0,.04.03.03.05.07.06.13.13.15.13.29.27.47.37.37.23.64.28.59.24-.04-.05-.37-.14-.89-.16-9.93.23-25.26,8.8-34.68,13.93-20.23,11.51-38.83,26.21-54.77,43.22-9.59,10.34-18.49,21.42-25.77,33.51h0Z"/>
  <path class="cls-1" d="M166.04,409.11c-10.73,14.29-9.79,23.87-8.91,27.79,4.78,21.35,41.98,27,63.28,25.88,12.18-.64,47-2.49,58.83-29.71,7.14-16.44,2.23-33.7,0-40.25"/>
  <path class="cls-1" d="M141.01,113.9c2.12-2.72,4.48-5.3,6.95-7.68,23.64-22.56,56.21-34.98,88.76-36.03,18.16-.36,36.67,2.79,53,10.88,5.16,2.65,3.27,10.31-2.5,10.31-3.16.16-6.25.02-9.39.09-2.31.07-4.61,0-6.9.09-11.28.27-22.38,1.03-33.49,2.59-29.67,4.07-58.1,14.05-85.45,26.08-1.32.55-2.81,1.26-4.15,1.78,0,0-1.21.34-1.21.34-4.98,1.38-8.8-4.4-5.63-8.44h0Z"/>
  <path class="cls-1" d="M338.19,73.89c11.46-9.62,22.96-13.92,29.92-16.45.05-.02.1-.03.14-.05,3.56-1.29,6.73,2.65,4.73,5.87-3.73,6-7.41,13.52-9.89,22.54-1.68,6.11-2.49,11.76-2.83,16.64-4.7-4.12-19.89-12.92-34.62-15.4,4.67-6.1,9.24-10.38,12.54-13.15Z"/>
  <path class="cls-1" d="M128.67,180.49c1.94-5.19,4.51-10.45,4.01-15.97-.69-7.66-7.63-13.87-15.22-15.07s-15.43,1.95-21.21,7.03c-5.78,5.07-9.76,11.89-12.91,18.91-5.22,11.6-8.5,24.46-6.62,37.04s9.66,24.74,21.48,29.43c11.82,4.69,27.29.03,32.61-11.52,7.81-16.97-8.5-32.81-2.14-49.84Z"/>
  <path class="cls-1" d="M74.13,300.01c-3.02-5.61-5.72-11.56-6.31-17.91-.59-6.35,1.24-13.2,6.05-17.38,7.69-6.68,19.83-4.32,28.53.98,8.7,5.3,15.67,13.52,25.13,17.31,23.77,9.52,31.51-7.34,42.18-8.81,9.34-1.29,16.7,10.06,37.7-1.34,12.85-6.98,18.96-22.09,29.2-32.53,7.68-7.82,15.17-15.11,25.06-19.83,12.21-5.82,27.65-8.63,41.09-7.14,20.2,2.24,37.62,17.9,44.43,37.05,6.81,19.15,3.8,40.99-5.61,59.01-9.41,18.02-24.76,32.45-41.96,43.28-28.69,18.06-62.09,28.7-95.9,26.28-5.06.49-28.85-3-36.7-5.22-9.58-2.71-18.9-6.38-27.77-10.9-17.5-8.9-33.34-21.1-46.3-35.84-7.26-8.26-13.61-17.33-18.82-27.01Z"/>
  <path class="cls-1" d="M191.42,187.54c-2.33-13.22,1.05-26.9,6.82-39.02,4.03-8.47,9.26-16.42,15.89-23.05,9.33-9.33,21.41-15.88,34.33-18.61,5.21-1.1,10.94-1.52,15.58,1.09,4.93,2.77,7.64,8.65,7.5,14.31-.14,5.66-2.81,11.03-6.49,15.33-3.55,4.14-8.03,7.42-11.41,11.69-5.89,7.44-7.92,17.77-5.31,26.88,1.6,5.57,4.84,10.91,4.42,16.69-.64,8.74-6.66,16.97-14.24,21.37-10.46,6.08-21.32,6.43-31.55-.96-8.32-6.01-13.77-15.68-15.53-25.71Z"/>
  <path class="cls-1" d="M146.51,250.6c-1.52-2.17-2.92-4.67-2.64-7.3.26-2.36,1.87-4.4,3.85-5.71s4.3-1.99,6.6-2.58c7.26-1.86,14.69-3.03,22.17-3.48,2.71-.16,5.47-.23,8.07.54,2.6.77,5.04,2.51,6.03,5.03.89,2.27,1.23,6.9-.53,7.08-17.14,1.81-20.79,22.78-24.39,22.54-3.36-.22-7.54-4.16-9.99-6.19-3.48-2.89-6.58-6.24-9.17-9.94Z"/>
  <path class="cls-3" d="M221.54,277.76c-7.82,6.92-18.72,11.78-29.35,11.55-3.79-.1-7.53-1.01-10.64-2.05-3.12-1.04-5.68-1.98-7.21-2-1.91-.06-3.5.79-5.39,1.85-2.3,1.34-4.91,3.19-7.88,4.86-8.79,5.3-19.04,5.93-28.59,2.83,5.06,13.68,15.8,25.34,29.4,30.74-1.82-4.64-3.55-10.24-.65-14.3,2.3-3.22,6.61-4.11,10.51-4.75,10.74-1.77,21.47-3.53,32.21-5.3,3.65-.6,7.4-1.2,11.01-.39,8.42,1.89,11.02,6.07,22.78,11.67-6.67-14.66-8.39-31.4-5.39-47.22-3.27,4.43-6.76,8.87-10.82,12.5Z"/>
  <path class="cls-1" d="M332.17,218.24c-8.16-6.33-18.18-10.69-28.56-11.84-16.68-1.63-33.65,1.77-48.39,9.74-8.88,4.98-15.73,11.69-22.55,18.69-2.31,2.34-4.52,4.92-6.49,7.51-6.55,8.42-10.9,17.03-19.09,23.24-5.12,3.56-11.95,6.36-17.51,6.24-3.73.03-9.98-1.43-14.19-2.52-2.72-.71-4.89-2.75-5.75-5.43h0c-.4-1.24-.91-2.61-2.08-3.18-.59-.29-1.27-.32-1.93-.27-4.15.32-4.5,2.67-3.8,5.43.63,2.5-.41,5.11-2.59,6.48-4.5,2.81-8.75,6.21-13.69,7.35-6.09,1.51-12.71-.16-18.37-2.86-6.52-3.31-11.26-8.12-17.89-12.84-8.55-6.2-19.32-10.27-30.03-7.6-11.99,2.97-17.8,15.61-16.12,27.09.87,6.79,3.74,12.96,6.89,18.73,20.14,36.78,55.18,64.87,95.45,76.58,10.82,2.77,21.75,4.4,32.84,5.58,1.68.14,3.47.26,5.2.2,0,0,0,0,0,0,38.05,2.99,76.09-9.93,107.15-31.45,15.84-11.14,29.73-25.56,38.3-43.14,15.21-30.55,11.62-70.05-16.82-91.74ZM204.13,373.42c-3.23.13-6.43-.18-9.68-.51-7.97-.88-16.09-2.01-23.91-3.69-38.6-9.92-73.57-36.01-92.31-71.41-4.89-8.82-8.89-20.75-1.87-28.59,6.23-6.2,16.57-3.18,23.33.94,8.77,5.58,16.69,14.8,27.3,18.53,10.26,4.12,21.59,3.88,31.18-1.9,2.97-1.67,5.59-3.52,7.88-4.86,1.89-1.07,3.48-1.92,5.39-1.85,1.53.03,4.09.96,7.21,2,3.11,1.04,6.85,1.95,10.64,2.05,10.63.22,21.54-4.63,29.35-11.55,7.11-6.36,12.46-15.18,17.97-22.13,1.75-2.23,3.56-4.28,5.57-6.25,5.98-6,12.52-12.14,19.73-16.08,12.11-6.42,26.53-9.12,40.14-7.76,18.63,2.2,34.24,17.49,39.43,35.2,18.3,71.2-76.13,122.51-137.35,117.87Z"/>
  <path class="cls-2" d="M262.19,396.14c-1.66-1.88-1.1-.53-2.69-4.04-1.87-4.1-6.24-6.92-9.03-10.38-3.1-3.85-5.89-9.06-4.5-14.16,1.2-4.41,5.29-6.97,9.6-7.4,5.26-.52,3.48-6.37-1.49-7.05-.24-.03-1.54,0-1.78-.02-10.41-1.32-18.78-2.54-24.24,7.8-1.45,2.74-2.58,5.78-3.29,8.92-2.43-4.95-5.33-9.47-11.04-10.1-4.03-.45-8.24,1.79-9.62,5.7-1.73,4.9,1.42,9.36,3.32,13.65,2.1,4.75,3.91,8.71,5.78,13.57,1.72,4.49,3.98,8.55-2.76,15.45-1.85,1.76-1.27,5.43,1.08,7.13-1.97-.18-3.09-2.01-5.08-2.04-5.39-.06-9.49-1.36-14.86-.96-4.3.32-12.42,3.04-16.18,5.49-3.49,2.28-3.67,7.4-3.78,11.16-.13,4.47.75,8.32,3.29,12.02,1.12,1.63,2.66,2.06,4.09,1.73,6.07,6.51,20.82,10.39,28.36,9.81,13.56-1.04,18.88-.57,31.76-5,7.12-2.44,20.68-8.66,23.86-15.27,1.63-3.38,3.06-4.65,4.39-8.19.21-.55-1.95-5.22-1.79-5.78.33-.42.65-.85.92-1.33,2.05-3.54-1.51-17.56-4.3-20.73ZM242.7,423.14c.84.06,1.68.09,2.51.05,2.74-.13,5.49-.93,7.45-2.68-.15.26-.32.51-.5.75-1.81,2.41-5.83,2.43-9.46,1.89ZM257.2,414.03c-.73.72-1.45,1.34-1.66,1.56.68-1.7,1.41-3.41,2.09-5.15-.09,1.2-.21,2.41-.43,3.59Z"/>
  <path class="cls-1" d="M264.03,393.48c-3-4.02-7.04-7.62-9.57-11.6-2.41-3.78-4.09-7.99-3.46-12.35.57-3.77,3.84-7.78,7.69-7.93.39-.01.75-.13,1.07-.32.28.07.55.15.84.22,2.1.67,3.98-1.8,2.74-3.66-2.57-3.87-6.29-6.51-10.32-8.53-4.53-2.4-10.05-2.99-14.94-1.55-6.69,1.89-12.02,7.29-13.6,14.08,0,.05-.01.09-.02.14-.7-1.08-1.65-2.08-2.98-2.97-8.42-6.1-21.31-1.97-22.6,8.93-.8,7.55,3.88,13.32,7.85,18.96,4.95,7.01,8.61,17.27-.11,22.6-4.43-.83-9-.96-13.47-.59-9.09.88-20.34,4.8-23.92,14.19-2.12,6.02-.82,12.76,2.5,18.02,15.67,23.68,59.85,18.61,81.03,5.34,9.62-5.73,18.21-15.02,19.54-26.63,1.18-9.6-2.71-18.83-8.24-26.38ZM217.63,395.64c-.8-4.53-2.73-8.65-5.06-12.48-2.61-4.03-6.94-9.9-6.26-14.28,1.01-5.94,8.38-6.51,12.15-2.67.54.58,1.1,2.45,1.65,4.4,1.5,6.23,4.9,12.49,9.2,17.12.37.41.98.57,1.51.34.68-.29,1-1.07.71-1.75-3.19-7.34-4.44-15.42-1.42-22.77,2.73-5.69,10.19-8.54,15.95-6.75,2.09.68,4.1,1.4,6.12,2.11-9.21,5.9-8.3,17.94-3.12,26.26.53.91,1.09,1.76,1.67,2.58.9,1.75,1.75,3.54,2.49,5.35,2.37,5.8,3.65,12.17,1.58,18.16-1.73,5.79-7.14,10.17-13.12,10.84-.6.07-1.63.1-2.22.07-9.38-.75-16.66-6.84-25.2-10.4-.56-.23-1.12-.42-1.69-.62,4.28-3.75,6.19-9.74,5.03-15.51ZM248.41,439.28c-17.52,10.73-56.06,15.68-69.82-2.69-2.68-3.87-3.99-9.45-1.34-13.59,1.82-2.55,4.48-4.42,7.57-5.92,8.59-3.91,19.03-4.47,27.89-1.26,8.69,3.36,16.81,9.61,26.52,10.3,4.76.33,9.56-1.3,13.29-4.2,6.56-5.07,8.73-13.08,8.03-20.93,8.59,15.27,3.82,29-12.14,38.29Z"/>
  <g>
    <path class="cls-1" d="M596.74,93.33c0,7.03-1.62,13.64-4.84,19.81-3.23,6.17-7.68,11.52-13.35,16.04-5.67,4.52-12.34,8.11-20.02,10.76-7.68,2.66-16.04,3.98-25.09,3.98-4.02.14-7.78-.03-11.3-.54-3.52-.5-6.78-1.18-9.8-2.04v16.58c0,4.88.28,8.83.86,11.84.58,3.01,1.19,5.42,1.83,7.21.65,1.8,1.26,3.19,1.83,4.2.58,1.01.87,2.01.87,3.01s-.43,1.87-1.29,2.58c-.86.72-1.87,1.08-3.01,1.08h-46.07c-1,0-1.94-.36-2.8-1.08-.86-.72-1.29-1.58-1.29-2.58s.28-2.01.86-3.01c.57-1,1.18-2.4,1.83-4.2.64-1.79,1.21-4.2,1.72-7.21.5-3.01.75-6.96.75-11.84v-85.26c0-4.88-.25-8.83-.75-11.84-.51-3.01-1.08-5.42-1.72-7.21-.65-1.79-1.26-3.19-1.83-4.2-.58-1-.86-1.94-.86-2.8,0-1.15.43-2.05,1.29-2.69s1.8-.97,2.8-.97h61.36c9.9,0,19.02,1.26,27.34,3.77,8.33,2.51,15.5,5.99,21.53,10.44,6.03,4.45,10.73,9.76,14.1,15.93,3.37,6.17,5.06,12.92,5.06,20.24ZM549.59,98.28c0-12.2-2.3-21.92-6.89-29.17-4.59-7.25-10.76-11.01-18.51-11.3h-.86c-1.29,0-2.59.32-3.88.97-1.29.65-2.48,1.51-3.56,2.58-1.07,1.08-1.94,2.3-2.58,3.66-.64,1.37-.97,2.69-.97,3.98v48.66c0,1.44.61,2.8,1.83,4.09s2.62,2.48,4.2,3.55c1.58,1.08,3.27,1.94,5.06,2.58,1.79.65,3.19.97,4.19.97,6.46,0,11.73-2.62,15.83-7.86,4.09-5.24,6.14-12.81,6.14-22.71Z"/>
    <path class="cls-1" d="M608.36,107.54c0-4.88-.29-8.57-.86-11.09-.58-2.51-1.19-4.38-1.83-5.6-.65-1.22-1.26-2.12-1.83-2.69-.58-.57-.86-1.36-.86-2.37s.39-1.86,1.19-2.58c.79-.72,1.83-1.08,3.12-1.08h16.47c4.52,0,8.32.04,11.41.11,3.09.07,5.56.11,7.43.11h4.31c1.15,0,2.15.36,3.01,1.08.86.72,1.29,1.58,1.29,2.58s-.07,1.8-.21,2.37c-.15.57-.33,1.47-.54,2.69-.22,1.22-.4,3.09-.54,5.6-.15,2.51-.22,6.28-.22,11.3v49.73c0,3.44.97,5.99,2.91,7.64,1.94,1.65,4.34,2.48,7.21,2.48,2.01,0,3.98-.5,5.92-1.51,1.94-1,3.66-2.37,5.17-4.09s2.72-3.73,3.66-6.03c.93-2.29,1.4-4.74,1.4-7.32v-41.34c0-4.88-.21-8.57-.64-11.09-.43-2.51-.9-4.38-1.4-5.6-.5-1.22-.97-2.12-1.4-2.69-.43-.57-.64-1.36-.64-2.37s.39-1.86,1.18-2.58c.79-.72,1.76-1.08,2.91-1.08,12.92,0,22.42.04,28.53.11,6.1.07,10.15.11,12.16.11,1.15,0,2.15.36,3.01,1.08.86.72,1.29,1.58,1.29,2.58s-.18,1.8-.54,2.37c-.36.57-.79,1.47-1.29,2.69-.5,1.22-.93,3.09-1.29,5.6-.36,2.51-.54,6.28-.54,11.3v54.47c0,4.88.28,8.58.86,11.09.57,2.51,1.18,4.38,1.83,5.6.65,1.22,1.26,2.12,1.83,2.69.57.57.86,1.37.86,2.37s-.43,1.87-1.29,2.58c-.86.72-1.87,1.08-3.01,1.08h-38.1c-1.15,0-2.15-.36-3.01-1.08-.86-.72-1.29-1.58-1.29-2.58v-10.76c-1.87,2.44-3.84,4.67-5.92,6.67-2.08,2.01-4.41,3.77-7,5.27s-5.42,2.65-8.51,3.44c-3.09.79-6.49,1.18-10.23,1.18-5.17,0-9.94-.75-14.31-2.26-4.38-1.51-8.18-3.59-11.41-6.24-3.23-2.65-5.74-5.81-7.53-9.47-1.8-3.66-2.69-7.57-2.69-11.73v-52.75Z"/>
    <path class="cls-1" d="M808.8,80.2c2.87,0,5.56.58,8.08,1.72,2.51,1.15,4.74,2.77,6.67,4.84,1.94,2.08,3.44,4.49,4.52,7.21,1.08,2.73,1.61,5.67,1.61,8.83,0,3.44-.57,6.6-1.72,9.47-1.15,2.87-2.69,5.35-4.63,7.43-1.94,2.08-4.16,3.73-6.67,4.95-2.51,1.22-5.2,1.83-8.07,1.83-3.01,0-5.57-.57-7.65-1.72-2.08-1.15-3.98-2.37-5.7-3.66-1.72-1.29-3.34-2.51-4.84-3.66-1.51-1.15-3.19-1.72-5.06-1.72-1.01,0-1.97.29-2.91.86-.93.58-1.72,1.62-2.37,3.12-.64,1.51-1.15,3.52-1.51,6.03-.36,2.51-.54,5.63-.54,9.36v23.04c0,4.88.29,8.79.86,11.73.57,2.94,1.18,5.31,1.83,7.1.65,1.8,1.22,3.19,1.72,4.2.5,1.01.76,2.01.76,3.01s-.4,1.87-1.19,2.58c-.79.72-1.76,1.08-2.91,1.08h-43.27c-1.15,0-2.15-.36-3.01-1.08-.86-.72-1.29-1.58-1.29-2.58s.28-2.01.86-3.01c.57-1,1.19-2.4,1.83-4.2.65-1.79,1.22-4.2,1.72-7.21.5-3.01.75-6.96.75-11.84v-50.16c0-4.88-.25-8.57-.75-11.09-.5-2.51-1.08-4.38-1.72-5.6-.64-1.22-1.26-2.12-1.83-2.69-.58-.57-.86-1.36-.86-2.37s.39-1.86,1.18-2.58c.79-.72,1.76-1.08,2.91-1.08h39.61c1.15,0,2.15.36,3.01,1.08.86.72,1.29,1.58,1.29,2.58,0,1.87-.25,3.84-.75,5.92-.5,2.08-.76,5.56-.76,10.44v2.8c1.58-2.87,3.44-5.78,5.6-8.72,2.15-2.94,4.52-5.63,7.1-8.07,2.58-2.44,5.38-4.41,8.4-5.92,3.01-1.51,6.24-2.26,9.69-2.26Z"/>
    <path class="cls-1" d="M913.43,80.2c2.87,0,5.56.58,8.08,1.72,2.51,1.15,4.74,2.77,6.67,4.84,1.94,2.08,3.44,4.49,4.52,7.21,1.08,2.73,1.61,5.67,1.61,8.83,0,3.44-.57,6.6-1.72,9.47-1.15,2.87-2.69,5.35-4.63,7.43-1.94,2.08-4.16,3.73-6.67,4.95-2.51,1.22-5.2,1.83-8.07,1.83-3.01,0-5.57-.57-7.65-1.72-2.08-1.15-3.98-2.37-5.7-3.66-1.72-1.29-3.34-2.51-4.84-3.66-1.51-1.15-3.19-1.72-5.06-1.72-1.01,0-1.97.29-2.91.86-.93.58-1.72,1.62-2.37,3.12-.64,1.51-1.15,3.52-1.51,6.03-.36,2.51-.54,5.63-.54,9.36v23.04c0,4.88.29,8.79.86,11.73.57,2.94,1.18,5.31,1.83,7.1.65,1.8,1.22,3.19,1.72,4.2.5,1.01.76,2.01.76,3.01s-.4,1.87-1.19,2.58c-.79.72-1.76,1.08-2.91,1.08h-43.27c-1.15,0-2.15-.36-3.01-1.08-.86-.72-1.29-1.58-1.29-2.58s.28-2.01.86-3.01c.57-1,1.19-2.4,1.83-4.2.65-1.79,1.22-4.2,1.72-7.21.5-3.01.75-6.96.75-11.84v-50.16c0-4.88-.25-8.57-.75-11.09-.5-2.51-1.08-4.38-1.72-5.6-.64-1.22-1.26-2.12-1.83-2.69-.58-.57-.86-1.36-.86-2.37s.39-1.86,1.18-2.58c.79-.72,1.76-1.08,2.91-1.08h39.61c1.15,0,2.15.36,3.01,1.08.86.72,1.29,1.58,1.29,2.58,0,1.87-.25,3.84-.75,5.92-.5,2.08-.76,5.56-.76,10.44v2.8c1.58-2.87,3.44-5.78,5.6-8.72,2.15-2.94,4.52-5.63,7.1-8.07,2.58-2.44,5.38-4.41,8.4-5.92,3.01-1.51,6.24-2.26,9.69-2.26Z"/>
    <path class="cls-1" d="M512.34,285.98l15.07-.43c4.44-.14,7.86-1.22,10.22-3.23,2.37-2.01,4.31-4.2,5.81-6.57,1.51-2.37,2.87-4.55,4.09-6.57,1.22-2.01,2.91-3.01,5.06-3.01,1,0,1.86.43,2.58,1.29.72.86,1.08,1.87,1.08,3.01v51.45c0,1.15-.36,2.15-1.08,3.01-.72.86-1.58,1.29-2.58,1.29-2.15,0-3.84-1.25-5.06-3.77-1.22-2.51-2.58-5.31-4.09-8.4-1.5-3.08-3.44-5.92-5.81-8.5-2.36-2.58-5.78-3.95-10.22-4.09l-15.07-.43v35.09c0,4.88.28,8.83.86,11.84.58,3.01,1.19,5.42,1.83,7.21.65,1.8,1.26,3.19,1.83,4.2.58,1.01.87,2.01.87,3.01s-.43,1.87-1.29,2.58c-.86.72-1.87,1.08-3.01,1.08h-46.07c-1.15,0-2.12-.36-2.91-1.08-.79-.72-1.18-1.58-1.18-2.58s.28-2.01.86-3.01c.57-1,1.18-2.4,1.83-4.2.64-1.79,1.21-4.16,1.72-7.1.5-2.94.75-6.85.75-11.73v-85.47c0-4.88-.25-8.83-.75-11.84-.51-3.01-1.08-5.42-1.72-7.21-.65-1.79-1.26-3.19-1.83-4.2-.58-1-.86-1.94-.86-2.8,0-1.15.39-2.05,1.18-2.69s1.76-.97,2.91-.97h80.95c4.88,0,8.64-.11,11.31-.32,2.65-.22,4.69-.46,6.13-.75,1.44-.29,2.48-.54,3.12-.75.64-.22,1.4-.32,2.26-.32,1.14,0,2.05.4,2.69,1.18.64.79.97,1.83.97,3.12.14,2.01.28,4.67.43,7.97.14,3.3.24,6.78.32,10.44.07,3.66.14,7.18.22,10.55.07,3.37.11,6.13.11,8.29.14,1.87-.5,3.52-1.94,4.95-1.44,1.44-3.16,2.15-5.17,2.15-1.86,0-3.41-.79-4.63-2.37-1.22-1.58-2.44-3.51-3.66-5.81-1.22-2.29-2.59-4.84-4.09-7.64-1.5-2.8-3.34-5.35-5.49-7.64-2.15-2.29-4.81-4.23-7.97-5.81-3.16-1.58-7.11-2.37-11.84-2.37h-1.29c-1.58,0-3.37.32-5.38.97-2.01.65-3.92,1.51-5.7,2.58-1.8,1.08-3.31,2.3-4.53,3.66-1.22,1.37-1.83,2.69-1.83,3.98v38.75Z"/>
    <path class="cls-1" d="M625.15,258.42c6.89,0,13.31.97,19.27,2.91,5.95,1.94,11.16,4.6,15.61,7.97,4.45,3.37,7.93,7.36,10.44,11.95,2.51,4.59,3.77,9.47,3.77,14.64,0,7.61-2.01,13.71-6.03,18.3-4.02,4.59-9.01,7.97-14.96,10.12-5.96,2.15-12.35,3.2-19.16,3.12-6.82-.07-13.1-1.04-18.84-2.91,1.14,2.73,2.54,5.28,4.2,7.64,1.65,2.37,3.59,4.41,5.81,6.14s4.81,3.09,7.75,4.09c2.94,1.01,6.28,1.51,10.01,1.51,6.46,0,11.3-1.22,14.53-3.66,3.23-2.44,5.78-5.13,7.64-8.07,1.86-2.94,3.52-5.63,4.95-8.07,1.43-2.44,3.52-3.66,6.24-3.66,1.86,0,3.44.68,4.74,2.05,1.29,1.37,1.94,3.05,1.94,5.06,0,2.3-1.04,5.74-3.12,10.33-2.08,4.59-5.35,9.12-9.8,13.56s-10.23,8.36-17.33,11.73c-7.11,3.37-15.61,5.06-25.51,5.06-8.47,0-16.26-1.37-23.36-4.09-7.11-2.73-13.24-6.49-18.41-11.3-5.17-4.81-9.19-10.58-12.06-17.33-2.87-6.74-4.31-14.14-4.31-22.17s1.4-15.18,4.2-21.85c2.8-6.67,6.71-12.45,11.73-17.33,5.02-4.88,10.94-8.72,17.76-11.52,6.82-2.8,14.24-4.2,22.28-4.2ZM624.72,271.34c-2.3,0-4.31.61-6.03,1.83-1.72,1.22-3.16,3.01-4.31,5.38s-1.97,5.27-2.48,8.72c-.5,3.44-.75,7.46-.75,12.06,0,2.15.07,4.38.22,6.67.14,2.3.36,4.52.64,6.67,3.16-.43,6.21-1.25,9.15-2.48,2.94-1.22,5.52-2.87,7.75-4.95,2.22-2.08,4.01-4.55,5.38-7.43,1.36-2.87,2.04-6.17,2.04-9.9,0-5.45-1.01-9.58-3.01-12.38-2.01-2.8-4.88-4.2-8.61-4.2Z"/>
    <path class="cls-1" d="M745.07,258.42c9.18,0,16.87,1.33,23.04,3.98,6.17,2.66,11.09,5.96,14.75,9.9,3.66,3.95,6.24,8.15,7.75,12.6,1.51,4.45,2.26,8.47,2.26,12.06,0,4.45-1.65,8-4.95,10.66-3.3,2.66-7.89,3.98-13.78,3.98-3.88,0-6.68-.97-8.4-2.91-1.72-1.94-2.94-4.34-3.66-7.21-.72-2.87-1.15-5.99-1.29-9.37-.15-3.37-.54-6.49-1.19-9.36-.64-2.87-1.76-5.28-3.34-7.21-1.58-1.94-4.16-2.91-7.75-2.91-3.3,0-6.17.79-8.61,2.37-2.44,1.58-4.45,3.84-6.03,6.78-1.58,2.94-2.76,6.46-3.55,10.55-.79,4.09-1.18,8.65-1.18,13.67,0,5.6.57,10.69,1.72,15.29,1.15,4.59,2.87,8.58,5.17,11.95,2.29,3.37,5.17,5.99,8.61,7.86,3.44,1.87,7.54,2.8,12.27,2.8,6.03,0,10.87-1.22,14.53-3.66,3.66-2.44,6.78-5.13,9.37-8.07,2.58-2.94,4.88-5.63,6.89-8.07,2.01-2.44,4.38-3.66,7.1-3.66,1.86,0,3.44.68,4.74,2.05,1.29,1.37,1.94,3.05,1.94,5.06,0,2.3-1.08,5.74-3.23,10.33-2.15,4.59-5.49,9.12-10.01,13.56-4.52,4.45-10.3,8.36-17.33,11.73-7.03,3.37-15.43,5.06-25.19,5.06-8.47,0-16.26-1.37-23.36-4.09-7.11-2.73-13.24-6.49-18.41-11.3-5.17-4.81-9.19-10.58-12.06-17.33-2.87-6.74-4.31-14.14-4.31-22.17,0-7.61,1.43-14.71,4.31-21.31,2.87-6.6,6.85-12.41,11.95-17.44,5.09-5.02,11.16-8.97,18.19-11.84,7.03-2.87,14.71-4.31,23.04-4.31Z"/>
    <path class="cls-1" d="M852.5,231.29c.57,0,1.36.29,2.37.86,1,.58,1.51,1.65,1.51,3.23v25.19h29.06c2.15,0,3.88.65,5.17,1.94,1.29,1.29,1.94,2.94,1.94,4.95,0,3.44-.5,6.14-1.51,8.07-1.01,1.94-2.73,2.77-5.17,2.48h-29.49v56.84c0,6.03.61,10.23,1.83,12.59,1.22,2.37,3.84,3.55,7.86,3.55s7-1.4,8.94-4.2,3.62-5.92,5.06-9.37c1.43-3.44,3.01-6.57,4.74-9.36,1.72-2.8,4.38-4.2,7.96-4.2,2.87,0,5.2.9,7,2.69,1.79,1.8,2.69,4.13,2.69,7,0,3.59-.9,7.43-2.69,11.52-1.8,4.09-4.6,7.86-8.4,11.3-3.8,3.44-8.65,6.28-14.53,8.5-5.89,2.22-12.92,3.34-21.1,3.34-6.03,0-11.55-.86-16.58-2.58-5.03-1.72-9.33-4.16-12.92-7.32-3.59-3.16-6.35-6.92-8.29-11.3-1.94-4.38-2.91-9.22-2.91-14.53v-40.04c0-4.31-.61-7.68-1.83-10.12-1.22-2.44-2.58-4.34-4.09-5.7-1.51-1.36-2.87-2.44-4.09-3.23-1.22-.79-1.83-1.69-1.83-2.69s.39-1.86,1.18-2.58c.79-.72,1.83-1.08,3.12-1.08,6.46,0,12.09-1.86,16.9-5.6,4.81-3.73,9.01-7.82,12.59-12.27,3.59-4.45,6.64-8.54,9.15-12.27,2.51-3.73,4.63-5.6,6.35-5.6Z"/>
    <path class="cls-1" d="M962.52,258.42c8.32,0,16,1.44,23.04,4.31,7.03,2.87,13.1,6.82,18.19,11.84,5.09,5.03,9.08,10.84,11.95,17.44,2.87,6.6,4.31,13.71,4.31,21.31s-1.44,14.53-4.31,21.21c-2.87,6.67-6.86,12.52-11.95,17.55-5.09,5.03-11.16,8.97-18.19,11.84-7.04,2.87-14.71,4.31-23.04,4.31s-16-1.44-23.04-4.31c-7.04-2.87-13.1-6.82-18.19-11.84-5.09-5.02-9.08-10.87-11.95-17.55-2.87-6.67-4.31-13.74-4.31-21.21s1.43-14.71,4.31-21.31c2.87-6.6,6.85-12.41,11.95-17.44,5.09-5.02,11.16-8.97,18.19-11.84,7.03-2.87,14.71-4.31,23.04-4.31ZM965.96,353.15c2.01,0,3.66-.57,4.95-1.72,1.29-1.15,2.37-2.94,3.23-5.38.86-2.44,1.47-5.52,1.83-9.26.36-3.73.54-8.25.54-13.56,0-7.61-.4-14.5-1.18-20.67-.79-6.17-1.94-11.41-3.44-15.72-1.51-4.31-3.34-7.61-5.49-9.9-2.15-2.29-4.6-3.44-7.32-3.44-1.87,0-3.48.57-4.84,1.72-1.37,1.15-2.48,2.91-3.34,5.27-.86,2.37-1.47,5.46-1.83,9.26-.36,3.8-.54,8.29-.54,13.46,0,7.75.4,14.71,1.19,20.88.79,6.17,1.94,11.41,3.44,15.72,1.51,4.31,3.34,7.61,5.49,9.9,2.15,2.3,4.59,3.44,7.32,3.44Z"/>
  </g>
</svg>